<?xml version="1.0" encoding="utf-8"?>
<!-- Svg Vector Icons : http://www.onlinewebfonts.com/icon -->
<!DOCTYPE svg PUBLIC "-//W3C//DTD SVG 1.1//EN" "http://www.w3.org/Graphics/SVG/1.1/DTD/svg11.dtd">
<svg version="1.1" xmlns="http://www.w3.org/2000/svg" xmlns:xlink="http://www.w3.org/1999/xlink" x="0px" y="0px" viewBox="0 0 1000 1000" enable-background="new 0 0 1000 1000" xml:space="preserve">
<metadata> Svg Vector Icons : http://www.onlinewebfonts.com/icon </metadata>
<g><g transform="translate(0.000000,511.000000) scale(0.100000,-0.100000)"><path d="M4330.8,4976.8c-2178-295.7-3913.5-2042-4198.5-4224.4c-43.2-330.3-43.2-951.9,0-1282.2C343.9-2157.3,1375.7-3586.3,2852.2-4303c695.1-336.7,1355.6-485.7,2147.8-485.7c604.4,0,1085.8,79.9,1618.9,265.5c701.5,243.9,1305.9,626,1847.7,1167.8c781.4,781.4,1260.6,1746.3,1400.9,2829.9c43.2,336.8,43.2,936.8,0,1273.6C9580.5,2947.7,7838.5,4694,5641.1,4979C5323.8,5020,4643.8,5017.8,4330.8,4976.8z M5546.1,4374.6c2145.6-280.6,3749.5-2104.6,3749.5-4263.2c0-2368-1923.3-4293.5-4291.3-4295.6c-1621.1,0-3112.7,913.1-3835.8,2352.9C177.7,145.9,821,2522.5,2675.2,3727c513.8,332.4,1215.3,585,1834.8,656.2C4769,4413.4,5284.9,4409.1,5546.1,4374.6z"/><path d="M3467.4,273.2v-2298.9h453.3H4374l4.3,762l6.5,759.8l798.7,13c630.3,10.8,831.1,19.4,949.8,47.5c231,56.1,354,99.3,507.3,181.3c384.2,207.2,600.1,535.3,671.3,1023.2c30.2,213.7,13,580.7-36.7,762c-159.7,591.5-649.7,945.5-1416,1027.5c-110.1,10.8-692.9,21.6-1295.2,21.6H3467.4V273.2z M5803,1620.2c295.7-62.6,442.5-226.7,464.1-524.5c25.9-323.8-110.1-550.4-375.6-632.5c-110.1-34.5-213.7-38.9-815.9-38.9h-690.8l-6.5,610.9l-4.3,608.7h656.2C5433.9,1643.9,5731.8,1635.3,5803,1620.2z"/></g></g>
</svg>