<svg xmlns="http://www.w3.org/2000/svg" xmlns:xlink="http://www.w3.org/1999/xlink" viewBox="0 0 360 457"><defs><style>.cls-1{fill:url(#Naamloos_verloop_70);}.cls-2{fill:url(#Naamloos_verloop_264);}.cls-3{fill:#3aed20;}</style><radialGradient id="Naamloos_verloop_70" cx="158" cy="210.5" fx="368.6489891910775" fy="210.5" r="212.78" gradientUnits="userSpaceOnUse"><stop offset="0" stop-color="#c42030"/><stop offset="1" stop-color="#fc8822"/><stop offset="1" stop-color="#fe8f1f"/><stop offset="1" stop-color="#ff931e"/></radialGradient><radialGradient id="Naamloos_verloop_264" cx="157.5" cy="157.5" fx="261.0666989090822" fy="203.93478089832556" r="113.5" gradientUnits="userSpaceOnUse"><stop offset="0" stop-color="#ee6e25"/><stop offset="0.85" stop-color="#dd4e2a"/><stop offset="0.94" stop-color="#db4b2a"/><stop offset="1" stop-color="#c5431e"/></radialGradient><symbol id="parklogo" data-name="parklogo" viewBox="0 0 316 421"><path class="cls-1" d="M316,158c0,87.26-45,113-159,263C44,271,0,245.26,0,158a158,158,0,0,1,316,0Z"/><circle class="cls-2" cx="157.5" cy="157.5" r="113.5"/><path class="cls-3" d="M77.62,136.05a15.73,15.73,0,0,0-.3,22.55l1.82,1.83,64.78,63.66a15.74,15.74,0,0,0,22.16-.1l24.37-24.37,83.94-83.94a15.72,15.72,0,0,0,0-22.25l-2.66-2.66a15.72,15.72,0,0,0-22.25,0l-95.75,95.74-51.37-51.38-.74-.73a15.73,15.73,0,0,0-21.94-.3Z"/></symbol></defs><g id="vmark"><use width="316" height="421" transform="translate(25 19)" xlink:href="#parklogo"/></g></svg>